<svg xmlns="http://www.w3.org/2000/svg" version="1.1" xmlns:xlink="http://www.w3.org/1999/xlink" xmlns:svgjs="http://svgjs.dev/svgjs" width="1440" height="560" preserveAspectRatio="none" viewBox="0 0 1440 560"><g mask="url(&quot;#SvgjsMask1003&quot;)" fill="none"><rect width="1440" height="560" x="0" y="0" fill="url(&quot;#SvgjsLinearGradient1004&quot;)"></rect><path d="M 0,215 C 57.6,176 172.8,23 288,20 C 403.2,17 460.8,183.6 576,200 C 691.2,216.4 748.8,107.4 864,102 C 979.2,96.6 1036.8,193 1152,173 C 1267.2,153 1382.4,36.2 1440,2L1440 560L0 560z" fill="#184a7e"></path><path d="M 0,413 C 96,416.8 288,432.4 480,432 C 672,431.6 768,403.4 960,411 C 1152,418.6 1344,458.2 1440,470L1440 560L0 560z" fill="#2264ab"></path></g><defs><mask id="SvgjsMask1003"><rect width="1440" height="560" fill="#ffffff"></rect></mask><linearGradient x1="15.28%" y1="-39.29%" x2="84.72%" y2="139.29%" gradientUnits="userSpaceOnUse" id="SvgjsLinearGradient1004"><stop stop-color="#0e2a47" offset="0"></stop><stop stop-color="#00459e" offset="1"></stop></linearGradient></defs></svg>