<svg xmlns="http://www.w3.org/2000/svg" viewBox="0 0 1920 1080"><g transform="          rotate(0 960 540)           translate(-0 -0)          scale(1)        "><rect width="1920" height="1080" fill="rgb(247, 255, 171)"></rect><g transform="translate(0, 0)"><path fill="rgb(232, 219, 148)" fill-opacity="1" d="M0,151.261L13.333,150.032C26.667,148.803,53.333,146.345,80,145.963C106.667,145.582,133.333,147.279,160,147.469C186.667,147.66,213.333,146.345,240,129.936C266.667,113.526,293.333,82.021,320,79.361C346.667,76.7,373.333,102.883,400,94.858C426.667,86.834,453.333,44.601,480,42.206C506.667,39.811,533.333,77.253,560,86.58C586.667,95.906,613.333,77.116,640,59.724C666.667,42.332,693.333,26.338,720,34.594C746.667,42.85,773.333,75.355,800,81.216C826.667,87.078,853.333,66.294,880,55.892C906.667,45.489,933.333,45.467,960,60.546C986.667,75.625,1013.333,105.805,1040,122.013C1066.667,138.222,1093.333,140.459,1120,122.004C1146.667,103.548,1173.333,64.398,1200,48.267C1226.667,32.136,1253.333,39.022,1280,54.117C1306.667,69.211,1333.333,92.514,1360,108.999C1386.667,125.483,1413.333,135.15,1440,128.792C1466.667,122.434,1493.333,100.051,1520,77.277C1546.667,54.503,1573.333,31.338,1600,18.585C1626.667,5.831,1653.333,3.489,1680,17.605C1706.667,31.722,1733.333,62.296,1760,71.907C1786.667,81.517,1813.333,70.163,1840,58.362C1866.667,46.561,1893.333,34.312,1906.667,28.188L1920,22.064L1920,1080L1906.667,1080C1893.333,1080,1866.667,1080,1840,1080C1813.333,1080,1786.667,1080,1760,1080C1733.333,1080,1706.667,1080,1680,1080C1653.333,1080,1626.667,1080,1600,1080C1573.333,1080,1546.667,1080,1520,1080C1493.333,1080,1466.667,1080,1440,1080C1413.333,1080,1386.667,1080,1360,1080C1333.333,1080,1306.667,1080,1280,1080C1253.333,1080,1226.667,1080,1200,1080C1173.333,1080,1146.667,1080,1120,1080C1093.333,1080,1066.667,1080,1040,1080C1013.333,1080,986.667,1080,960,1080C933.333,1080,906.667,1080,880,1080C853.333,1080,826.667,1080,800,1080C773.333,1080,746.667,1080,720,1080C693.333,1080,666.667,1080,640,1080C613.333,1080,586.667,1080,560,1080C533.333,1080,506.667,1080,480,1080C453.333,1080,426.667,1080,400,1080C373.333,1080,346.667,1080,320,1080C293.333,1080,266.667,1080,240,1080C213.333,1080,186.667,1080,160,1080C133.333,1080,106.667,1080,80,1080C53.333,1080,26.667,1080,13.333,1080L0,1080Z"></path></g><g transform="translate(0, 154.28571428571428)"><path fill="rgb(217, 182, 125)" fill-opacity="1" d="M0,38.733L13.333,39.896C26.667,41.059,53.333,43.385,80,57.024C106.667,70.663,133.333,95.615,160,112.607C186.667,129.6,213.333,138.632,240,144.051C266.667,149.469,293.333,151.272,320,140.839C346.667,130.405,373.333,107.735,400,89.698C426.667,71.661,453.333,58.257,480,46.559C506.667,34.86,533.333,24.867,560,39.631C586.667,54.396,613.333,93.919,640,116.643C666.667,139.367,693.333,145.291,720,148.463C746.667,151.636,773.333,152.056,800,143.263C826.667,134.471,853.333,116.465,880,105.222C906.667,93.978,933.333,89.496,960,80.339C986.667,71.182,1013.333,57.35,1040,68.276C1066.667,79.201,1093.333,114.885,1120,129.766C1146.667,144.647,1173.333,138.725,1200,137.041C1226.667,135.358,1253.333,137.913,1280,134.949C1306.667,131.984,1333.333,123.501,1360,102.338C1386.667,81.175,1413.333,47.332,1440,51.385C1466.667,55.438,1493.333,97.386,1520,106.916C1546.667,116.447,1573.333,93.56,1600,74.098C1626.667,54.637,1653.333,38.601,1680,38.27C1706.667,37.94,1733.333,53.315,1760,74.74C1786.667,96.165,1813.333,123.64,1840,125.288C1866.667,126.936,1893.333,102.757,1906.667,90.667L1920,78.577L1920,925.714L1906.667,925.714C1893.333,925.714,1866.667,925.714,1840,925.714C1813.333,925.714,1786.667,925.714,1760,925.714C1733.333,925.714,1706.667,925.714,1680,925.714C1653.333,925.714,1626.667,925.714,1600,925.714C1573.333,925.714,1546.667,925.714,1520,925.714C1493.333,925.714,1466.667,925.714,1440,925.714C1413.333,925.714,1386.667,925.714,1360,925.714C1333.333,925.714,1306.667,925.714,1280,925.714C1253.333,925.714,1226.667,925.714,1200,925.714C1173.333,925.714,1146.667,925.714,1120,925.714C1093.333,925.714,1066.667,925.714,1040,925.714C1013.333,925.714,986.667,925.714,960,925.714C933.333,925.714,906.667,925.714,880,925.714C853.333,925.714,826.667,925.714,800,925.714C773.333,925.714,746.667,925.714,720,925.714C693.333,925.714,666.667,925.714,640,925.714C613.333,925.714,586.667,925.714,560,925.714C533.333,925.714,506.667,925.714,480,925.714C453.333,925.714,426.667,925.714,400,925.714C373.333,925.714,346.667,925.714,320,925.714C293.333,925.714,266.667,925.714,240,925.714C213.333,925.714,186.667,925.714,160,925.714C133.333,925.714,106.667,925.714,80,925.714C53.333,925.714,26.667,925.714,13.333,925.714L0,925.714Z"></path></g><g transform="translate(0, 308.57142857142856)"><path fill="rgb(202, 146, 102)" fill-opacity="1" d="M0,65.626L13.333,56.311C26.667,46.997,53.333,28.369,80,18.834C106.667,9.299,133.333,8.857,160,17.245C186.667,25.632,213.333,42.848,240,66.182C266.667,89.515,293.333,118.965,320,128.95C346.667,138.936,373.333,129.458,400,108.236C426.667,87.013,453.333,54.047,480,58.103C506.667,62.159,533.333,103.238,560,109.655C586.667,116.072,613.333,87.827,640,81.207C666.667,74.587,693.333,89.593,720,90.518C746.667,91.442,773.333,78.285,800,79.831C826.667,81.376,853.333,97.624,880,105.527C906.667,113.431,933.333,112.99,960,105.409C986.667,97.829,1013.333,83.108,1040,78.861C1066.667,74.613,1093.333,80.838,1120,83.881C1146.667,86.924,1173.333,86.784,1200,85.27C1226.667,83.756,1253.333,80.868,1280,78.333C1306.667,75.798,1333.333,73.617,1360,63.24C1386.667,52.862,1413.333,34.288,1440,23.196C1466.667,12.105,1493.333,8.496,1520,13.649C1546.667,18.803,1573.333,32.718,1600,41.466C1626.667,50.214,1653.333,53.795,1680,54.606C1706.667,55.418,1733.333,53.46,1760,58.033C1786.667,62.607,1813.333,73.712,1840,81.713C1866.667,89.715,1893.333,94.614,1906.667,97.063L1920,99.513L1920,771.429L1906.667,771.429C1893.333,771.429,1866.667,771.429,1840,771.429C1813.333,771.429,1786.667,771.429,1760,771.429C1733.333,771.429,1706.667,771.429,1680,771.429C1653.333,771.429,1626.667,771.429,1600,771.429C1573.333,771.429,1546.667,771.429,1520,771.429C1493.333,771.429,1466.667,771.429,1440,771.429C1413.333,771.429,1386.667,771.429,1360,771.429C1333.333,771.429,1306.667,771.429,1280,771.429C1253.333,771.429,1226.667,771.429,1200,771.429C1173.333,771.429,1146.667,771.429,1120,771.429C1093.333,771.429,1066.667,771.429,1040,771.429C1013.333,771.429,986.667,771.429,960,771.429C933.333,771.429,906.667,771.429,880,771.429C853.333,771.429,826.667,771.429,800,771.429C773.333,771.429,746.667,771.429,720,771.429C693.333,771.429,666.667,771.429,640,771.429C613.333,771.429,586.667,771.429,560,771.429C533.333,771.429,506.667,771.429,480,771.429C453.333,771.429,426.667,771.429,400,771.429C373.333,771.429,346.667,771.429,320,771.429C293.333,771.429,266.667,771.429,240,771.429C213.333,771.429,186.667,771.429,160,771.429C133.333,771.429,106.667,771.429,80,771.429C53.333,771.429,26.667,771.429,13.333,771.429L0,771.429Z"></path></g><g transform="translate(0, 462.85714285714283)"><path fill="rgb(188, 109, 79)" fill-opacity="1" d="M0,130.832L13.333,123.83C26.667,116.827,53.333,102.821,80,88.339C106.667,73.857,133.333,58.898,160,59.271C186.667,59.644,213.333,75.349,240,72.854C266.667,70.36,293.333,49.666,320,55.282C346.667,60.898,373.333,92.825,400,99.092C426.667,105.359,453.333,85.966,480,90.287C506.667,94.607,533.333,122.641,560,134.456C586.667,146.271,613.333,141.867,640,129.505C666.667,117.144,693.333,96.824,720,95.577C746.667,94.331,773.333,112.157,800,110.693C826.667,109.229,853.333,88.473,880,79.939C906.667,71.404,933.333,75.09,960,67.017C986.667,58.943,1013.333,39.111,1040,42.338C1066.667,45.564,1093.333,71.851,1120,68.672C1146.667,65.493,1173.333,32.849,1200,27.843C1226.667,22.837,1253.333,45.468,1280,66.396C1306.667,87.323,1333.333,106.546,1360,95.491C1386.667,84.435,1413.333,43.101,1440,40.805C1466.667,38.51,1493.333,75.255,1520,81.062C1546.667,86.869,1573.333,61.739,1600,55.193C1626.667,48.647,1653.333,60.685,1680,64.261C1706.667,67.838,1733.333,62.953,1760,72.21C1786.667,81.468,1813.333,104.868,1840,97.238C1866.667,89.608,1893.333,50.949,1906.667,31.619L1920,12.289L1920,617.143L1906.667,617.143C1893.333,617.143,1866.667,617.143,1840,617.143C1813.333,617.143,1786.667,617.143,1760,617.143C1733.333,617.143,1706.667,617.143,1680,617.143C1653.333,617.143,1626.667,617.143,1600,617.143C1573.333,617.143,1546.667,617.143,1520,617.143C1493.333,617.143,1466.667,617.143,1440,617.143C1413.333,617.143,1386.667,617.143,1360,617.143C1333.333,617.143,1306.667,617.143,1280,617.143C1253.333,617.143,1226.667,617.143,1200,617.143C1173.333,617.143,1146.667,617.143,1120,617.143C1093.333,617.143,1066.667,617.143,1040,617.143C1013.333,617.143,986.667,617.143,960,617.143C933.333,617.143,906.667,617.143,880,617.143C853.333,617.143,826.667,617.143,800,617.143C773.333,617.143,746.667,617.143,720,617.143C693.333,617.143,666.667,617.143,640,617.143C613.333,617.143,586.667,617.143,560,617.143C533.333,617.143,506.667,617.143,480,617.143C453.333,617.143,426.667,617.143,400,617.143C373.333,617.143,346.667,617.143,320,617.143C293.333,617.143,266.667,617.143,240,617.143C213.333,617.143,186.667,617.143,160,617.143C133.333,617.143,106.667,617.143,80,617.143C53.333,617.143,26.667,617.143,13.333,617.143L0,617.143Z"></path></g><g transform="translate(0, 617.1428571428571)"><path fill="rgb(173, 73, 56)" fill-opacity="1" d="M0,113.966L13.333,108.096C26.667,102.226,53.333,90.486,80,94.716C106.667,98.946,133.333,119.147,160,119.427C186.667,119.707,213.333,100.066,240,77.974C266.667,55.882,293.333,31.337,320,29.422C346.667,27.506,373.333,48.219,400,69.596C426.667,90.974,453.333,113.015,480,106.779C506.667,100.542,533.333,66.027,560,49.356C586.667,32.685,613.333,33.857,640,47.831C666.667,61.805,693.333,88.581,720,106.282C746.667,123.984,773.333,132.611,800,126.013C826.667,119.416,853.333,97.593,880,95.972C906.667,94.351,933.333,112.932,960,112.4C986.667,111.868,1013.333,92.223,1040,90.76C1066.667,89.298,1093.333,106.018,1120,110.023C1146.667,114.028,1173.333,105.319,1200,93.319C1226.667,81.318,1253.333,66.026,1280,57.207C1306.667,48.388,1333.333,46.041,1360,38.805C1386.667,31.569,1413.333,19.442,1440,34.177C1466.667,48.911,1493.333,90.507,1520,113.716C1546.667,136.924,1573.333,141.746,1600,123.927C1626.667,106.109,1653.333,65.649,1680,45.086C1706.667,24.523,1733.333,23.857,1760,22.134C1786.667,20.411,1813.333,17.632,1840,21.613C1866.667,25.594,1893.333,36.335,1906.667,41.705L1920,47.076L1920,462.857L1906.667,462.857C1893.333,462.857,1866.667,462.857,1840,462.857C1813.333,462.857,1786.667,462.857,1760,462.857C1733.333,462.857,1706.667,462.857,1680,462.857C1653.333,462.857,1626.667,462.857,1600,462.857C1573.333,462.857,1546.667,462.857,1520,462.857C1493.333,462.857,1466.667,462.857,1440,462.857C1413.333,462.857,1386.667,462.857,1360,462.857C1333.333,462.857,1306.667,462.857,1280,462.857C1253.333,462.857,1226.667,462.857,1200,462.857C1173.333,462.857,1146.667,462.857,1120,462.857C1093.333,462.857,1066.667,462.857,1040,462.857C1013.333,462.857,986.667,462.857,960,462.857C933.333,462.857,906.667,462.857,880,462.857C853.333,462.857,826.667,462.857,800,462.857C773.333,462.857,746.667,462.857,720,462.857C693.333,462.857,666.667,462.857,640,462.857C613.333,462.857,586.667,462.857,560,462.857C533.333,462.857,506.667,462.857,480,462.857C453.333,462.857,426.667,462.857,400,462.857C373.333,462.857,346.667,462.857,320,462.857C293.333,462.857,266.667,462.857,240,462.857C213.333,462.857,186.667,462.857,160,462.857C133.333,462.857,106.667,462.857,80,462.857C53.333,462.857,26.667,462.857,13.333,462.857L0,462.857Z"></path></g><g transform="translate(0, 771.4285714285714)"><path fill="rgb(158, 36, 33)" fill-opacity="1" d="M0,53.801L13.333,50.607C26.667,47.413,53.333,41.024,80,37.327C106.667,33.63,133.333,32.626,160,39.131C186.667,45.636,213.333,59.65,240,71.3C266.667,82.949,293.333,92.235,320,105.436C346.667,118.636,373.333,135.75,400,122.95C426.667,110.15,453.333,67.436,480,46.227C506.667,25.017,533.333,25.313,560,26.075C586.667,26.838,613.333,28.067,640,44.625C666.667,61.183,693.333,93.07,720,102.617C746.667,112.164,773.333,99.37,800,93.369C826.667,87.369,853.333,88.161,880,81.814C906.667,75.466,933.333,61.981,960,71.75C986.667,81.519,1013.333,114.544,1040,106.521C1066.667,98.499,1093.333,49.43,1120,34.358C1146.667,19.286,1173.333,38.211,1200,39.843C1226.667,41.474,1253.333,25.812,1280,33.289C1306.667,40.765,1333.333,71.382,1360,81.623C1386.667,91.864,1413.333,81.729,1440,66.997C1466.667,52.265,1493.333,32.935,1520,34.299C1546.667,35.662,1573.333,57.718,1600,66.688C1626.667,75.659,1653.333,71.545,1680,79.004C1706.667,86.463,1733.333,105.496,1760,102.936C1786.667,100.377,1813.333,76.225,1840,66.253C1866.667,56.28,1893.333,60.485,1906.667,62.588L1920,64.691L1920,308.571L1906.667,308.571C1893.333,308.571,1866.667,308.571,1840,308.571C1813.333,308.571,1786.667,308.571,1760,308.571C1733.333,308.571,1706.667,308.571,1680,308.571C1653.333,308.571,1626.667,308.571,1600,308.571C1573.333,308.571,1546.667,308.571,1520,308.571C1493.333,308.571,1466.667,308.571,1440,308.571C1413.333,308.571,1386.667,308.571,1360,308.571C1333.333,308.571,1306.667,308.571,1280,308.571C1253.333,308.571,1226.667,308.571,1200,308.571C1173.333,308.571,1146.667,308.571,1120,308.571C1093.333,308.571,1066.667,308.571,1040,308.571C1013.333,308.571,986.667,308.571,960,308.571C933.333,308.571,906.667,308.571,880,308.571C853.333,308.571,826.667,308.571,800,308.571C773.333,308.571,746.667,308.571,720,308.571C693.333,308.571,666.667,308.571,640,308.571C613.333,308.571,586.667,308.571,560,308.571C533.333,308.571,506.667,308.571,480,308.571C453.333,308.571,426.667,308.571,400,308.571C373.333,308.571,346.667,308.571,320,308.571C293.333,308.571,266.667,308.571,240,308.571C213.333,308.571,186.667,308.571,160,308.571C133.333,308.571,106.667,308.571,80,308.571C53.333,308.571,26.667,308.571,13.333,308.571L0,308.571Z"></path></g><g transform="translate(0, 925.7142857142857)"><path fill="rgb(143, 0, 10)" fill-opacity="1" d="M0,127.962L13.333,110.328C26.667,92.695,53.333,57.428,80,45.048C106.667,32.667,133.333,43.173,160,57.131C186.667,71.09,213.333,88.502,240,102.473C266.667,116.443,293.333,126.971,320,131.564C346.667,136.156,373.333,134.812,400,112.365C426.667,89.918,453.333,46.367,480,32.425C506.667,18.482,533.333,34.146,560,44.038C586.667,53.929,613.333,58.048,640,60.679C666.667,63.31,693.333,64.454,720,77.369C746.667,90.284,773.333,114.969,800,114.426C826.667,113.883,853.333,88.11,880,83.11C906.667,78.11,933.333,93.883,960,95.327C986.667,96.77,1013.333,83.885,1040,70.37C1066.667,56.855,1093.333,42.711,1120,51.241C1146.667,59.771,1173.333,90.976,1200,105.975C1226.667,120.975,1253.333,119.77,1280,107.681C1306.667,95.592,1333.333,72.619,1360,65.666C1386.667,58.713,1413.333,67.779,1440,65.429C1466.667,63.079,1493.333,49.314,1520,59.389C1546.667,69.464,1573.333,103.378,1600,119.411C1626.667,135.443,1653.333,133.594,1680,122.653C1706.667,111.711,1733.333,91.678,1760,91.973C1786.667,92.267,1813.333,112.889,1840,117.223C1866.667,121.556,1893.333,109.601,1906.667,103.624L1920,97.646L1920,154.286L1906.667,154.286C1893.333,154.286,1866.667,154.286,1840,154.286C1813.333,154.286,1786.667,154.286,1760,154.286C1733.333,154.286,1706.667,154.286,1680,154.286C1653.333,154.286,1626.667,154.286,1600,154.286C1573.333,154.286,1546.667,154.286,1520,154.286C1493.333,154.286,1466.667,154.286,1440,154.286C1413.333,154.286,1386.667,154.286,1360,154.286C1333.333,154.286,1306.667,154.286,1280,154.286C1253.333,154.286,1226.667,154.286,1200,154.286C1173.333,154.286,1146.667,154.286,1120,154.286C1093.333,154.286,1066.667,154.286,1040,154.286C1013.333,154.286,986.667,154.286,960,154.286C933.333,154.286,906.667,154.286,880,154.286C853.333,154.286,826.667,154.286,800,154.286C773.333,154.286,746.667,154.286,720,154.286C693.333,154.286,666.667,154.286,640,154.286C613.333,154.286,586.667,154.286,560,154.286C533.333,154.286,506.667,154.286,480,154.286C453.333,154.286,426.667,154.286,400,154.286C373.333,154.286,346.667,154.286,320,154.286C293.333,154.286,266.667,154.286,240,154.286C213.333,154.286,186.667,154.286,160,154.286C133.333,154.286,106.667,154.286,80,154.286C53.333,154.286,26.667,154.286,13.333,154.286L0,154.286Z"></path></g></g></svg>